<?xml version="1.0" encoding="UTF-8" standalone="no"?>
<svg
   xmlns:dc="http://purl.org/dc/elements/1.1/"
   xmlns:cc="http://creativecommons.org/ns#"
   xmlns:rdf="http://www.w3.org/1999/02/22-rdf-syntax-ns#"
   xmlns:svg="http://www.w3.org/2000/svg"
   xmlns="http://www.w3.org/2000/svg"
   xmlns:sodipodi="http://sodipodi.sourceforge.net/DTD/sodipodi-0.dtd"
   xmlns:inkscape="http://www.inkscape.org/namespaces/inkscape"
   inkscape:version="1.0beta2 (2b71d25, 2019-12-03)"
   sodipodi:docname="metamask-logo.svg"
   xml:space="preserve"
   style="enable-background:new 0 0 318.6 318.6;"
   viewBox="0 0 318.6 318.6"
   y="0px"
   x="0px"
   id="Layer_1"
   version="1.1"><metadata
   id="metadata1053"><rdf:RDF><cc:Work
       rdf:about=""><dc:format>image/svg+xml</dc:format><dc:type
         rdf:resource="http://purl.org/dc/dcmitype/StillImage" /></cc:Work></rdf:RDF></metadata><defs
   id="defs1051" /><sodipodi:namedview
   inkscape:current-layer="Layer_1"
   inkscape:window-maximized="0"
   inkscape:window-y="38"
   inkscape:window-x="0"
   inkscape:cy="159.51083"
   inkscape:cx="45.196954"
   inkscape:zoom="0.85373507"
   showgrid="false"
   id="namedview1049"
   inkscape:window-height="673"
   inkscape:window-width="1171"
   inkscape:pageshadow="2"
   inkscape:pageopacity="0"
   guidetolerance="10"
   gridtolerance="10"
   objecttolerance="10"
   borderopacity="1"
   inkscape:document-rotation="0"
   bordercolor="#666666"
   pagecolor="#ffffff" />
<style
   id="style978"
   type="text/css">
	.st0{fill:#E2761B;stroke:#E2761B;stroke-linecap:round;stroke-linejoin:round;}
	.st1{fill:#E4761B;stroke:#E4761B;stroke-linecap:round;stroke-linejoin:round;}
	.st2{fill:#D7C1B3;stroke:#D7C1B3;stroke-linecap:round;stroke-linejoin:round;}
	.st3{fill:#233447;stroke:#233447;stroke-linecap:round;stroke-linejoin:round;}
	.st4{fill:#CD6116;stroke:#CD6116;stroke-linecap:round;stroke-linejoin:round;}
	.st5{fill:#E4751F;stroke:#E4751F;stroke-linecap:round;stroke-linejoin:round;}
	.st6{fill:#F6851B;stroke:#F6851B;stroke-linecap:round;stroke-linejoin:round;}
	.st7{fill:#C0AD9E;stroke:#C0AD9E;stroke-linecap:round;stroke-linejoin:round;}
	.st8{fill:#161616;stroke:#161616;stroke-linecap:round;stroke-linejoin:round;}
	.st9{fill:#763D16;stroke:#763D16;stroke-linecap:round;stroke-linejoin:round;}
</style>
<polygon
   transform="matrix(1.2124045,0,0,1.2099717,-36.64612,-27.351023)"
   id="polygon980"
   points="193,65.8 274.1,35.5 174.6,109.4 "
   class="st0" />
<g
   transform="matrix(1.2124045,0,0,1.2099717,-36.64612,-27.351023)"
   id="g996">
	<polygon
   id="polygon982"
   points="125.6,65.8 44.4,35.5 143.1,110.1 "
   class="st1" />
	<polygon
   id="polygon984"
   points="284.8,207.7 238.3,206.8 211.8,247.4 268.5,263 "
   class="st1" />
	<polygon
   id="polygon986"
   points="80.3,206.8 33.9,207.7 50.1,263 106.8,247.4 "
   class="st1" />
	<polygon
   id="polygon988"
   points="142.1,104.1 103.6,138.2 87.8,162.1 144.1,164.6 "
   class="st1" />
	<polygon
   id="polygon990"
   points="230.8,162.1 214.9,138.2 175.9,103.4 174.6,164.6 "
   class="st1" />
	<polygon
   id="polygon992"
   points="111.4,208.1 106.8,247.4 140.6,230.9 "
   class="st1" />
	<polygon
   id="polygon994"
   points="207.1,208.1 177.9,230.9 211.8,247.4 "
   class="st1" />
</g>
<g
   transform="matrix(1.2124045,0,0,1.2099717,-36.64612,-27.351023)"
   id="g1002">
	<polygon
   id="polygon998"
   points="180.3,262.3 211.8,247.4 177.9,230.9 180.6,253 "
   class="st2" />
	<polygon
   id="polygon1000"
   points="140.6,230.9 106.8,247.4 138.3,262.3 138.1,253 "
   class="st2" />
</g>
<polygon
   transform="matrix(1.2124045,0,0,1.2099717,-36.64612,-27.351023)"
   id="polygon1004"
   points="130.5,176.1 138.8,193.5 110.6,185.2 "
   class="st3" />
<polygon
   transform="matrix(1.2124045,0,0,1.2099717,-36.64612,-27.351023)"
   id="polygon1006"
   points="208,185.2 179.7,193.5 188,176.1 "
   class="st3" />
<g
   transform="matrix(1.2124045,0,0,1.2099717,-36.64612,-27.351023)"
   id="g1016">
	<polygon
   id="polygon1008"
   points="80.3,207.7 106.8,247.4 111.6,206.8 "
   class="st4" />
	<polygon
   id="polygon1010"
   points="238.3,207.7 207,206.8 211.8,247.4 "
   class="st4" />
	<polygon
   id="polygon1012"
   points="230.8,162.1 174.6,164.6 179.8,193.5 188.1,176.1 208.1,185.2 "
   class="st4" />
	<polygon
   id="polygon1014"
   points="110.6,185.2 130.6,176.1 138.8,193.5 144.1,164.6 87.8,162.1 "
   class="st4" />
</g>
<g
   transform="matrix(1.2124045,0,0,1.2099717,-36.64612,-27.351023)"
   id="g1026">
	<polygon
   id="polygon1018"
   points="110.6,185.2 87.8,162.1 111.4,208.1 "
   class="st5" />
	<polygon
   id="polygon1020"
   points="230.8,162.1 208.1,185.2 207.1,208.1 "
   class="st5" />
	<polygon
   id="polygon1022"
   points="146.9,182.7 144.1,164.6 138.8,193.5 145.4,227.6 "
   class="st5" />
	<polygon
   id="polygon1024"
   points="179.8,193.5 174.6,164.6 171.9,182.6 173.1,227.6 "
   class="st5" />
</g>
<polygon
   transform="matrix(1.2124045,0,0,1.2099717,-36.64612,-27.351023)"
   id="polygon1028"
   points="179.8,193.5 173.1,227.6 177.9,230.9 207.1,208.1 208.1,185.2 "
   class="st6" />
<polygon
   transform="matrix(1.2124045,0,0,1.2099717,-36.64612,-27.351023)"
   id="polygon1030"
   points="110.6,185.2 111.4,208.1 140.6,230.9 145.4,227.6 138.8,193.5 "
   class="st6" />
<polygon
   transform="matrix(1.2124045,0,0,1.2099717,-36.64612,-27.351023)"
   id="polygon1032"
   points="211.8,247.4 180.3,262.3 180.6,253 178.1,250.8 140.4,250.8 138.1,253 138.3,262.3 106.8,247.4 117.8,256.4 140.1,271.9 178.4,271.9 200.8,256.4 "
   class="st7" />
<polygon
   transform="matrix(1.2124045,0,0,1.2099717,-36.64612,-27.351023)"
   id="polygon1034"
   points="140.6,230.9 138.1,253 140.4,250.8 178.1,250.8 180.6,253 177.9,230.9 173.1,227.6 145.4,227.6 "
   class="st8" />
<g
   transform="matrix(1.2124045,0,0,1.2099717,-34.64612,-27.351023)"
   id="g1040">
	<polygon
   id="polygon1036"
   points="286.8,73.4 274.1,35.5 177.9,106.9 214.9,138.2 267.2,153.5 278.8,140 273.8,136.4 281.8,129.1 275.6,124.3 283.6,118.2 278.3,114.2 "
   class="st9" />
	<polygon
   id="polygon1038"
   points="40.3,114.2 34.9,118.2 42.9,124.3 36.8,129.1 44.8,136.4 39.8,140 51.3,153.5 103.6,138.2 140.6,106.9 44.4,35.5 31.8,73.4 "
   class="st9" />
</g>
<polygon
   transform="matrix(1.2124045,0,0,1.2099717,-36.64612,-27.351023)"
   id="polygon1042"
   points="284.8,207.7 267.2,153.5 214.9,138.2 230.8,162.1 207.1,208.1 238.3,207.7 "
   class="st6" />
<polygon
   transform="matrix(1.2124045,0,0,1.2099717,-36.64612,-27.351023)"
   id="polygon1044"
   points="87.8,162.1 103.6,138.2 51.3,153.5 33.9,207.7 80.3,207.7 111.4,208.1 "
   class="st6" />
<polygon
   transform="matrix(1.2124045,0,0,1.2099717,-36.64612,-27.351023)"
   id="polygon1046"
   points="144.1,164.6 145.3,182.8 145.4,227.6 173.1,227.6 173.3,182.8 174.6,164.6 177.9,106.9 193.1,65.8 125.6,65.8 140.6,106.9 "
   class="st6" />
</svg>
