<svg xmlns="http://www.w3.org/2000/svg" width="129" height="23" class="css-1omtjhb">
  <g clip-path="url(#a)">
    <path d="m33.64 5.05-6.877 14.084h3.067l1.283-2.737h8.221l1.283 2.737h3.087L36.827 5.05h-3.19.004Zm-1.363 8.892 2.947-6.298 2.968 6.298h-5.915ZM57.56 16.96c-1.343 0-1.564-.624-1.564-1.81v-3.823h4.211V8.872h-4.21V5.915h-2.748v2.957h-.943c-3.088 0-4.752 1.75-5.394 3.702l.06-3.702h-2.747v10.26h2.747v-.542c0-2.535 1.283-7.263 5.415-7.263h.862v4.165c0 2.333 1.142 3.842 3.93 3.842.943 0 2.085-.081 3.329-.543l-.201-2.333a8.417 8.417 0 0 1-2.748.504l.002-.002ZM121.983 11.851c0-.604.943-.845 1.925-.845 1.564 0 2.746.604 3.569 1.308l1.263-1.972c-.762-.684-2.246-1.67-4.732-1.67-3.008 0-4.813 1.388-4.813 3.4 0 3.923 7.018 2.514 7.018 4.003 0 .604-.902.926-2.286.926-1.604 0-3.008-.604-3.809-1.308l-1.262 1.972c.762.684 2.286 1.67 5.012 1.67 2.906 0 5.132-1.146 5.132-3.48 0-3.984-7.018-2.556-7.018-4.004h.001Z"/><path d="M118.915 8.873h-3.208l-4.892 5.352V5.05h-2.768v14.084h2.768v-1.59l2.085-2.234 2.927 3.824h3.348l-4.49-5.735 4.23-4.526ZM102.214 11.086c1.544 0 2.567.604 3.347 1.348l1.303-2.092c-.782-.684-2.065-1.67-4.652-1.67-3.408 0-5.754 2.133-5.754 5.33 0 3.2 2.346 5.332 5.754 5.332 2.606 0 3.87-.985 4.652-1.67l-1.303-2.093c-.782.745-1.804 1.349-3.347 1.349-1.744 0-2.947-1.047-2.947-2.917 0-1.87 1.203-2.917 2.947-2.917ZM76.328 11.93c1.204-.421 2.165-1.408 2.165-3.138 0-2.394-1.583-3.742-4.351-3.742H65.3v14.084h9.464c2.707 0 4.43-1.468 4.43-3.944 0-1.65-1.062-2.817-2.867-3.26h.001Zm-8.24-4.425h5.533c1.464 0 2.065.543 2.065 1.63 0 1.207-.601 1.71-2.065 1.71h-5.534v-3.34Zm6.255 9.174h-6.256v-3.42h6.256c1.423 0 2.004.703 2.004 1.63 0 1.066-.56 1.79-2.004 1.79ZM89.983 8.672c-3.43 0-5.655 2.133-5.655 5.33 0 3.2 2.226 5.332 5.655 5.332 3.428 0 5.613-2.133 5.613-5.331 0-3.198-2.225-5.331-5.613-5.331Zm0 8.249c-1.744 0-2.848-1.046-2.848-2.917 0-1.87 1.104-2.916 2.848-2.916 1.744 0 2.806 1.046 2.806 2.916 0 1.87-1.103 2.917-2.806 2.917ZM83.145 5.05h-2.747v14.084h2.747V5.05ZM.33 15.995H.325l.02.005s-.005-.008-.008-.01l-.009.005H.33ZM23.28 9.213c-.445-.403-1.104-.463-1.638-.189l-.026.012a2.418 2.418 0 0 0-.32.203l-.051.04c-.018.012-.032.025-.048.037a3.634 3.634 0 0 0-.334.318 5.323 5.323 0 0 0-.441.547 9.63 9.63 0 0 0-.337.505c-.205.33-.388.65-.561.97a35.58 35.58 0 0 0-.496.947c-.16.313-.314.625-.467.936l-.448.91-.037-.147-.072-.298a177.54 177.54 0 0 1-.678-3.031c-.177-.817-.353-1.638-.535-2.46-.183-.825-.37-1.65-.574-2.482a51.584 51.584 0 0 0-.353-1.366l-.096-.344-.052-.181a19.6 19.6 0 0 0-.528-1.61c-.078-.205-.16-.406-.247-.597a7.217 7.217 0 0 0-.272-.54c-.024-.04-.047-.083-.072-.122l-.036-.06-.038-.057a4.37 4.37 0 0 0-.15-.217 2.644 2.644 0 0 0-.314-.355 2.786 2.786 0 0 0-.16-.14 1.978 1.978 0 0 0-1.077-.443c-.038-.005-.077-.005-.116-.006h-.06l-.06.001-.082.006-.078.009a1.771 1.771 0 0 0-.804.332 2.035 2.035 0 0 0-.396.383 3.007 3.007 0 0 0-.364.576l-.02.04c-.008.014-.014.027-.02.041l-.04.083a1.563 1.563 0 0 0-.037.086l-.02.043-.018.045c-.05.118-.097.241-.143.367l-.033.096-.034.097-.065.198a20.708 20.708 0 0 0-.343 1.24c-.034.14-.068.282-.1.423l-.05.213-.032.142c-.131.59-.248 1.176-.361 1.759-.223 1.167-.42 2.327-.609 3.487-.188 1.16-.367 2.316-.544 3.47l-.337 2.205-.04-.171-.05-.203a17.312 17.312 0 0 0-.105-.412 11.557 11.557 0 0 0-.266-.868l-.043-.116-.047-.12-.052-.126-.029-.065-.014-.032-.007-.016-.008-.016-.033-.068-.016-.035-.008-.017-.01-.019-.038-.072-.02-.037-.022-.039-.045-.078-.003-.005-.003-.005-.007-.01-.013-.022-.027-.042-.028-.043-.016-.023-.017-.023-.068-.093a1.186 1.186 0 0 0-.067-.08l-.017-.02-.022-.023-.043-.045-.022-.022-.011-.01-.013-.013c-.02-.016-.038-.034-.057-.05l-.029-.023-.014-.011-.007-.006-.01-.007a2.227 2.227 0 0 0-.07-.051c-.011-.009-.025-.016-.036-.025l-.019-.011-.01-.006-.012-.008a1.734 1.734 0 0 0-.09-.049l-.044-.023-.023-.012-.026-.011a2.287 2.287 0 0 0-.107-.042l-.054-.02c-.019-.005-.039-.01-.059-.017a1.606 1.606 0 0 0-.578-.047c-.022.002-.044.004-.066.008-.043.006-.085.015-.128.023a1.626 1.626 0 0 0-.193.057l-.023.009a1.043 1.043 0 0 0-.092.039l-.023.01-.02.009L5 12.1l-.075.04-.06.038-.031.02a.49.49 0 0 1-.028.02c-.015.01-.033.022-.049.035l-.024.02-.012.008-.01.009-.04.033-.018.018-.019.015-.063.061c-.075.076-.128.14-.172.196l-.03.04-.028.039-.013.018-.012.018-.023.035a3.12 3.12 0 0 0-.23.416 7.53 7.53 0 0 0-.256.61c-.07.187-.136.364-.198.538-.06.168-.121.337-.184.507l-.037.102-.033-.036-.055-.06-.11-.124a27.762 27.762 0 0 1-.43-.508l-.043-.055-.023-.03-.058-.064h-.003c-.706-.752-2.088-.688-2.545.493-.185.48-.064 1.029.253 1.434l.006.01.044.056.044.054a18.666 18.666 0 0 0 .506.598l.13.147.067.073c.03.032.059.066.09.098l.124.132.062.065.062.065.126.13.129.126c.041.042.086.082.128.123l.065.061.032.03.033.03c.044.039.089.076.132.116.022.02.045.037.067.055l.066.053.067.054c.023.018.044.034.068.05l.067.052.034.024.017.013.017.012.138.09.035.022.034.019.068.039.068.039.068.033.068.032.035.016a5.511 5.511 0 0 0 .17.07l.135.04a1.748 1.748 0 0 0 1.03-.06l.049-.02a1.66 1.66 0 0 0 .185-.088 2.128 2.128 0 0 0 .648-.559c.049-.06.097-.124.141-.192.026-.038.051-.08.076-.12l.008.037c.107.516.214 1.036.326 1.54.014.063.027.127.042.19l.043.187.022.093.01.046.011.045.044.183.021.091c.008.03.015.06.024.089l.044.178.012.044.012.043.023.086.023.086.023.084.048.165.023.083.024.078.05.158c.008.028.015.051.024.076l.025.074.024.074.025.072.052.138.026.07.026.064.052.127.026.061.026.058.026.058.013.03.013.027.054.106.013.026c.004.009.008.019.013.026l.027.048.054.096.053.085.028.043.013.02.013.019.053.078.01.013.01.012.02.024.038.048c.013.018.026.03.04.044l.038.042c.051.054.103.099.152.14l.02.015.018.013.037.026.038.026.038.025a.252.252 0 0 0 .037.022l.038.02s.013.008.019.01l.018.01.038.017.036.017.019.009.019.008.037.015.02.007.018.006.038.013.037.012.077.02a1.736 1.736 0 0 0 .346.044h.069a1.726 1.726 0 0 0 .236-.024 1.42 1.42 0 0 0 .154-.036c.05-.016.097-.03.145-.05.025-.008.048-.02.072-.03.025-.011.048-.024.073-.036.049-.023.098-.054.149-.089.013-.008.026-.017.037-.026.013-.008.026-.019.04-.027l.038-.03.04-.036c.012-.011.025-.023.04-.034.013-.014.027-.025.04-.04.013-.014.028-.027.04-.042l.021-.021.02-.024c.013-.016.028-.032.04-.049l.02-.026.021-.026.042-.058a2.217 2.217 0 0 0 .204-.37c.052-.12.103-.257.15-.41l.018-.058.008-.029.01-.03c.01-.04.022-.081.034-.122l.033-.126c.012-.042.022-.087.032-.13.043-.176.084-.36.124-.55.08-.378.155-.774.227-1.18.037-.2.071-.405.106-.61.035-.205.07-.41.103-.618.094-.57.183-1.146.273-1.723.063-.418.129-.834.192-1.252.088-.576.177-1.152.263-1.728.177-1.15.353-2.299.54-3.442.186-1.142.38-2.281.594-3.404.107-.562.22-1.12.343-1.668l.016-.07.042.147.088.317c.116.423.225.854.332 1.288.196.795.38 1.602.559 2.412.179.811.354 1.627.53 2.447.178.82.356 1.642.547 2.472l.146.624.075.313.042.17.074.292c.104.405.214.808.334 1.2.06.196.123.387.19.573.066.186.137.364.212.531.054.118.108.228.168.331a2.45 2.45 0 0 0 .373.515 1.778 1.778 0 0 0 .403.324 1.799 1.799 0 0 0 .443.187c.042.01.087.022.134.029.025.004.05.009.076.012.026.003.053.007.08.007l.089.006c.029 0 .055 0 .08-.002l.145-.008c.024 0 .045-.005.068-.008l.034-.006.033-.005.129-.03a1.799 1.799 0 0 0 .52-.244c.09-.061.18-.133.27-.218a3 3 0 0 0 .27-.295c.177-.22.35-.489.514-.772a17.326 17.326 0 0 0 .482-.885c.156-.303.31-.61.461-.917.153-.31.307-.621.459-.933.15-.305.299-.607.45-.904.151-.298.303-.59.458-.872.153-.283.31-.559.467-.81a7.294 7.294 0 0 1 .341-.495c.035-.043.067-.081.093-.109l.024-.024c.794-.572 1.008-1.715.2-2.447v.009ZM4.647 14.39v-.003.003Z"/>
  </g>
  <defs>
    <clipPath id="a"><path d="M0 0h129v23.233H0z"/></clipPath>
  </defs>
</svg>